<svg width="900" height="60" viewBox="0 0 900 60" xmlns="http://www.w3.org/2000/svg">
<rect width="900" height="60" fill="#05060d"/>
<circle cx="214.2" cy="32.7" r="0.52" fill="#9fb0d6" opacity="0.25"/>
<circle cx="563.1" cy="3.9" r="0.31" fill="#9fb0d6" opacity="0.31"/>
<circle cx="233.4" cy="14.1" r="0.90" fill="#9fb0d6" opacity="0.22"/>
<circle cx="752.8" cy="28.6" r="0.68" fill="#9fb0d6" opacity="0.14"/>
<circle cx="571.4" cy="52.1" r="0.61" fill="#9fb0d6" opacity="0.29"/>
<circle cx="604.3" cy="3.8" r="0.75" fill="#9fb0d6" opacity="0.25"/>
<circle cx="271.1" cy="1.9" r="0.82" fill="#9fb0d6" opacity="0.22"/>
<circle cx="646.9" cy="52.7" r="0.73" fill="#9fb0d6" opacity="0.33"/>
<circle cx="355.5" cy="48.1" r="0.57" fill="#9fb0d6" opacity="0.33"/>
<circle cx="791.0" cy="5.8" r="0.38" fill="#9fb0d6" opacity="0.15"/>
<circle cx="868.9" cy="26.2" r="0.68" fill="#9fb0d6" opacity="0.18"/>
<circle cx="456.5" cy="23.2" r="0.51" fill="#9fb0d6" opacity="0.25"/>
<circle cx="525.8" cy="54.3" r="0.71" fill="#9fb0d6" opacity="0.33"/>
<circle cx="770.8" cy="59.5" r="0.70" fill="#9fb0d6" opacity="0.14"/>
<circle cx="774.6" cy="57.9" r="0.84" fill="#9fb0d6" opacity="0.24"/>
<circle cx="642.4" cy="12.7" r="0.80" fill="#9fb0d6" opacity="0.24"/>
<circle cx="256.5" cy="3.8" r="0.81" fill="#9fb0d6" opacity="0.35"/>
<circle cx="79.7" cy="48.0" r="0.55" fill="#9fb0d6" opacity="0.14"/>
<circle cx="264.5" cy="46.1" r="0.82" fill="#9fb0d6" opacity="0.11"/>
<circle cx="553.1" cy="2.7" r="0.73" fill="#9fb0d6" opacity="0.18"/>
<circle cx="792.8" cy="58.8" r="0.60" fill="#9fb0d6" opacity="0.35"/>
<circle cx="278.7" cy="4.6" r="0.66" fill="#9fb0d6" opacity="0.11"/>
<circle cx="177.6" cy="24.5" r="0.67" fill="#9fb0d6" opacity="0.14"/>
<circle cx="38.2" cy="52.1" r="0.49" fill="#9fb0d6" opacity="0.34"/>
<circle cx="807.0" cy="22.7" r="0.58" fill="#9fb0d6" opacity="0.23"/>
<circle cx="579.5" cy="35.7" r="0.64" fill="#9fb0d6" opacity="0.26"/>
<circle cx="846.6" cy="30.4" r="0.56" fill="#9fb0d6" opacity="0.28"/>
<circle cx="213.9" cy="18.1" r="0.89" fill="#9fb0d6" opacity="0.23"/>
<circle cx="493.6" cy="0.7" r="0.55" fill="#9fb0d6" opacity="0.24"/>
<circle cx="18.0" cy="36.9" r="0.68" fill="#9fb0d6" opacity="0.12"/>
<circle cx="564.6" cy="28.0" r="0.71" fill="#9fb0d6" opacity="0.19"/>
<circle cx="636.3" cy="44.3" r="0.31" fill="#9fb0d6" opacity="0.12"/>
<circle cx="608.4" cy="57.8" r="0.45" fill="#9fb0d6" opacity="0.21"/>
<circle cx="533.4" cy="19.2" r="0.52" fill="#9fb0d6" opacity="0.18"/>
<circle cx="332.2" cy="35.7" r="0.48" fill="#9fb0d6" opacity="0.19"/>
<circle cx="695.0" cy="1.6" r="0.64" fill="#9fb0d6" opacity="0.28"/>
<circle cx="279.0" cy="13.4" r="0.78" fill="#9fb0d6" opacity="0.16"/>
<circle cx="168.7" cy="26.1" r="0.72" fill="#9fb0d6" opacity="0.13"/>
<circle cx="289.8" cy="20.0" r="0.80" fill="#9fb0d6" opacity="0.21"/>
<circle cx="770.0" cy="10.2" r="0.50" fill="#9fb0d6" opacity="0.26"/>
<circle cx="796.4" cy="27.1" r="0.44" fill="#9fb0d6" opacity="0.13"/>
<circle cx="476.7" cy="11.4" r="0.78" fill="#9fb0d6" opacity="0.31"/>
<circle cx="165.2" cy="16.7" r="0.78" fill="#9fb0d6" opacity="0.26"/>
<circle cx="725.6" cy="20.7" r="0.38" fill="#9fb0d6" opacity="0.17"/>
<circle cx="714.5" cy="16.3" r="0.51" fill="#9fb0d6" opacity="0.20"/>
<circle cx="377.8" cy="24.6" r="0.85" fill="#9fb0d6" opacity="0.14"/>
<circle cx="4.2" cy="56.6" r="0.83" fill="#9fb0d6" opacity="0.35"/>
<circle cx="390.9" cy="57.0" r="0.86" fill="#9fb0d6" opacity="0.16"/>
<circle cx="671.0" cy="50.2" r="0.70" fill="#9fb0d6" opacity="0.23"/>
<circle cx="260.1" cy="20.5" r="0.44" fill="#9fb0d6" opacity="0.12"/>
<circle cx="529.8" cy="17.2" r="0.79" fill="#9fb0d6" opacity="0.11"/>
<circle cx="813.2" cy="41.6" r="0.85" fill="#9fb0d6" opacity="0.32"/>
<circle cx="809.7" cy="34.6" r="0.31" fill="#9fb0d6" opacity="0.29"/>
<circle cx="154.6" cy="18.0" r="0.70" fill="#9fb0d6" opacity="0.23"/>
<circle cx="372.4" cy="56.3" r="0.67" fill="#9fb0d6" opacity="0.19"/>
<circle cx="227.2" cy="51.7" r="0.59" fill="#9fb0d6" opacity="0.30"/>
<circle cx="316.7" cy="11.8" r="0.62" fill="#9fb0d6" opacity="0.30"/>
<circle cx="154.2" cy="47.5" r="0.85" fill="#9fb0d6" opacity="0.30"/>
<circle cx="741.1" cy="0.5" r="0.68" fill="#9fb0d6" opacity="0.32"/>
<circle cx="44.9" cy="16.3" r="0.46" fill="#9fb0d6" opacity="0.23"/>
<circle cx="380.7" cy="28.4" r="0.77" fill="#9fb0d6" opacity="0.10"/>
<circle cx="49.4" cy="7.6" r="0.37" fill="#9fb0d6" opacity="0.12"/>
<circle cx="877.2" cy="51.3" r="0.35" fill="#9fb0d6" opacity="0.23"/>
<circle cx="284.3" cy="18.9" r="0.51" fill="#9fb0d6" opacity="0.26"/>
<circle cx="528.0" cy="21.7" r="0.41" fill="#9fb0d6" opacity="0.18"/>
<circle cx="111.4" cy="33.3" r="0.73" fill="#9fb0d6" opacity="0.20"/>
<circle cx="71.9" cy="10.7" r="0.52" fill="#9fb0d6" opacity="0.25"/>
<circle cx="704.4" cy="22.8" r="0.78" fill="#9fb0d6" opacity="0.26"/>
<circle cx="388.4" cy="22.3" r="0.60" fill="#9fb0d6" opacity="0.28"/>
<circle cx="378.5" cy="41.6" r="0.58" fill="#9fb0d6" opacity="0.16"/>
<line x1="0" y1="30.0" x2="900" y2="30.0" stroke="#6C63FF" stroke-width="0.6" opacity="0.2"/>
<circle cx="426.0" cy="30.0" r="2.6" fill="#6C63FF" opacity="0.9"/>
<circle cx="450.0" cy="30.0" r="2.6" fill="#6C63FF" opacity="0.65"/>
<circle cx="474.0" cy="30.0" r="2.6" fill="#6C63FF" opacity="0.4"/>
</svg>